<svg xmlns="http://www.w3.org/2000/svg" viewBox="10888 7931 352 340"><defs><style>.cln-1{fill:#fff}.cln-2{fill:#dcdbde}.cln-3{font-size:12px;font-family:SegoeUI,Segoe UI}.cln-4{opacity:.8}.cln-5{opacity:.87}.cln-6,.cln-8{fill:none}.cln-6{stroke:#de4444}.cln-7{stroke:none}.cln-9{filter:url(#Rectangle_151)}.cln-10{filter:url(#Rectangle_156)}</style><filter id="Rectangle_156" x="10888" y="7931" width="352" height="340" filterUnits="userSpaceOnUse"><feOffset dy="3"/><feGaussianBlur stdDeviation="4" result="blur"/><feFlood flood-opacity=".161"/><feComposite operator="in" in2="blur"/><feComposite in="SourceGraphic"/></filter><filter id="Rectangle_151" x="10891" y="7934" width="346" height="70" filterUnits="userSpaceOnUse"><feOffset dy="3"/><feGaussianBlur stdDeviation="3" result="blur-2"/><feFlood flood-opacity=".161"/><feComposite operator="in" in2="blur-2"/><feComposite in="SourceGraphic"/></filter></defs><g id="Group_97" data-name="Group 97" transform="translate(-1317 32)"><g class="cln-10" transform="translate(1317 -32)"><rect id="Rectangle_156-2" data-name="Rectangle 156" class="cln-1" width="328" height="316" rx="10" transform="translate(10900 7940)"/></g><g class="cln-9" transform="translate(1317 -32)"><rect id="Rectangle_151-2" data-name="Rectangle 151" class="cln-2" width="328" height="52" rx="10" transform="translate(10900 7940)"/></g><g id="Group_51" data-name="Group 51" transform="translate(12160 7709.286)"><g id="Group_44" data-name="Group 44"><text id="M" class="cln-3" transform="translate(127.697 229.714)"><tspan x="0" y="0">M</tspan></text></g><g id="Group_45" data-name="Group 45"><text id="S" class="cln-3" transform="translate(83.929 229.714)"><tspan x="0" y="0">S</tspan></text></g><g id="Group_46" data-name="Group 46"><text id="W" class="cln-3" transform="translate(215.671 229.714)"><tspan x="0" y="0">W</tspan></text></g><g id="Group_47" data-name="Group 47"><text id="T" class="cln-3" transform="translate(261.308 229.714)"><tspan x="0" y="0">T</tspan></text></g><g id="Group_48" data-name="Group 48"><text id="F" class="cln-3" transform="translate(305.653 229.714)"><tspan x="0" y="0">F</tspan></text></g><g id="Group_49" data-name="Group 49"><text id="S-2" data-name="S" class="cln-3" transform="translate(349.329 229.714)"><tspan x="0" y="0">S</tspan></text></g><g id="Group_50" data-name="Group 50"><text id="T-2" data-name="T" class="cln-3" transform="translate(173.51 229.714)"><tspan x="0" y="0">T</tspan></text></g></g><g id="Group_53" data-name="Group 53" class="cln-4" transform="translate(12160 7724)"><g id="Group_52" data-name="Group 52"><text id="_30" data-name="30" class="cln-3" transform="translate(82.062 470.089)"><tspan x="0" y="0">30</tspan></text></g></g><g id="Group_62" data-name="Group 62" class="cln-5" transform="translate(12160 7724)"><g id="Group_55" data-name="Group 55"><text id="_16" data-name="16" class="cln-3" transform="translate(82.063 389.589)"><tspan x="0" y="0">16</tspan></text></g><g id="Group_56" data-name="Group 56"><text id="_17" data-name="17" class="cln-3" transform="translate(126.062 389.589)"><tspan x="0" y="0">17</tspan></text></g><g id="Group_57" data-name="Group 57"><text id="_19" data-name="19" class="cln-3" transform="translate(214.062 389.589)"><tspan x="0" y="0">19</tspan></text></g><g id="Group_58" data-name="Group 58"><text id="_20" data-name="20" class="cln-3" transform="translate(258.062 389.589)"><tspan x="0" y="0">20</tspan></text></g><g id="Group_59" data-name="Group 59"><text id="_21" data-name="21" class="cln-3" transform="translate(302.06 389.589)"><tspan x="0" y="0">21</tspan></text></g><g id="Group_60" data-name="Group 60"><text id="_22" data-name="22" class="cln-3" transform="translate(346.062 389.589)"><tspan x="0" y="0">22</tspan></text></g><g id="Group_61" data-name="Group 61"><text id="_18" data-name="18" class="cln-3" transform="translate(170.062 389.589)"><tspan x="0" y="0">18</tspan></text></g></g><g id="Group_70" data-name="Group 70" class="cln-5" transform="translate(12160 7724)"><g id="Group_63" data-name="Group 63"><text id="_23" data-name="23" class="cln-3" transform="translate(82.062 430.089)"><tspan x="0" y="0">23</tspan></text></g><g id="Group_64" data-name="Group 64"><text id="_24" data-name="24" class="cln-3" transform="translate(126.062 430.089)"><tspan x="0" y="0">24</tspan></text></g><g id="Group_65" data-name="Group 65"><text id="_26" data-name="26" class="cln-3" transform="translate(214.062 430.089)"><tspan x="0" y="0">26</tspan></text></g><g id="Group_66" data-name="Group 66"><text id="_27" data-name="27" class="cln-3" transform="translate(258.062 430.089)"><tspan x="0" y="0">27</tspan></text></g><g id="Group_67" data-name="Group 67"><text id="_28" data-name="28" class="cln-3" transform="translate(302.061 430.089)"><tspan x="0" y="0">28</tspan></text></g><g id="Group_68" data-name="Group 68"><text id="_29" data-name="29" class="cln-3" transform="translate(346.062 430.089)"><tspan x="0" y="0">29</tspan></text></g><g id="Group_69" data-name="Group 69"><text id="_25" data-name="25" class="cln-3" transform="translate(170.062 430.089)"><tspan x="0" y="0">25</tspan></text></g></g><g id="Group_85" data-name="Group 85" class="cln-5" transform="translate(12161 7724)"><g id="Group_79" data-name="Group 79"><text id="_2" data-name="2" class="cln-3" transform="translate(85.581 308.589)"><tspan x="0" y="0">2</tspan></text></g><g id="Group_80" data-name="Group 80"><text id="_3" data-name="3" class="cln-3" transform="translate(129.581 308.589)"><tspan x="0" y="0">3</tspan></text></g><g id="Group_81" data-name="Group 81"><text id="_5" data-name="5" class="cln-3" transform="translate(217.581 308.589)"><tspan x="0" y="0">5</tspan></text></g><g id="Group_82" data-name="Group 82" transform="translate(-2)"><text id="_6" data-name="6" class="cln-3" transform="translate(261.581 308.589)"><tspan x="0" y="0">6</tspan></text></g><g id="Group_95" data-name="Group 95" transform="translate(44)"><text id="_7" data-name="7" class="cln-3" transform="translate(261.581 308.589)"><tspan x="0" y="0">7</tspan></text></g><g id="Group_83" data-name="Group 83" transform="translate(-1)"><text id="_8" data-name="8" class="cln-3" transform="translate(349.581 308.589)"><tspan x="0" y="0">8</tspan></text></g><g id="Group_84" data-name="Group 84"><text id="_4" data-name="4" class="cln-3" transform="translate(173.581 308.589)"><tspan x="0" y="0">4</tspan></text></g></g><g id="Group_78" data-name="Group 78" class="cln-5" transform="translate(12160 7724)"><g id="Group_72" data-name="Group 72"><text id="_9" data-name="9" class="cln-3" transform="translate(85.581 349.627)"><tspan x="0" y="0">9</tspan></text></g><g id="Group_73" data-name="Group 73"><text id="_10" data-name="10" class="cln-3" transform="translate(126.062 349.627)"><tspan x="0" y="0">10</tspan></text></g><g id="Group_74" data-name="Group 74"><text id="_12" data-name="12" class="cln-3" transform="translate(214.062 349.627)"><tspan x="0" y="0">12</tspan></text></g><g id="Group_96" data-name="Group 96" transform="translate(44)"><text id="_13" data-name="13" class="cln-3" transform="translate(214.062 349.627)"><tspan x="0" y="0">13</tspan></text></g><g id="Group_75" data-name="Group 75"><text id="_14" data-name="14" class="cln-3" transform="translate(302.06 349.627)"><tspan x="0" y="0">14</tspan></text></g><g id="Group_76" data-name="Group 76"><text id="_15" data-name="15" class="cln-3" transform="translate(346.062 349.627)"><tspan x="0" y="0">15</tspan></text></g><g id="Group_77" data-name="Group 77" transform="translate(1)"><text id="_11" data-name="11" class="cln-3" transform="translate(170.062 349.627)"><tspan x="0" y="0">11</tspan></text></g></g><g id="Group_54" data-name="Group 54" class="cln-5" transform="translate(12160 7724)"><text id="_1" data-name="1" class="cln-3" transform="translate(349.581 269.464)"><tspan x="0" y="0">1</tspan></text></g><g id="Ellipse_29" data-name="Ellipse 29" class="cln-6" transform="translate(12501 7978)"><circle class="cln-7" cx="11.5" cy="11.5" r="11.5"/><circle class="cln-8" cx="11.5" cy="11.5" r="11"/></g><g id="Ellipse_30" data-name="Ellipse 30" class="cln-6" transform="translate(12501 8016)"><circle class="cln-7" cx="11.5" cy="11.5" r="11.5"/><circle class="cln-8" cx="11.5" cy="11.5" r="11"/></g><g id="Ellipse_34" data-name="Ellipse 34" class="cln-6" transform="translate(12413 8016)"><circle class="cln-7" cx="11.5" cy="11.5" r="11.5"/><circle class="cln-8" cx="11.5" cy="11.5" r="11"/></g><g id="Ellipse_32" data-name="Ellipse 32" class="cln-6" transform="translate(12458 8016)"><circle class="cln-7" cx="11.5" cy="11.5" r="11.5"/><circle class="cln-8" cx="11.5" cy="11.5" r="11"/></g><g id="Ellipse_35" data-name="Ellipse 35" class="cln-6" transform="translate(12370 8016)"><circle class="cln-7" cx="11.5" cy="11.5" r="11.5"/><circle class="cln-8" cx="11.5" cy="11.5" r="11"/></g><g id="Ellipse_38" data-name="Ellipse 38" class="cln-6" transform="translate(12327 8016)"><circle class="cln-7" cx="11.5" cy="11.5" r="11.5"/><circle class="cln-8" cx="11.5" cy="11.5" r="11"/></g><g id="Ellipse_40" data-name="Ellipse 40" class="cln-6" transform="translate(12282 8016)"><circle class="cln-7" cx="11.5" cy="11.5" r="11.5"/><circle class="cln-8" cx="11.5" cy="11.5" r="11"/></g><g id="Ellipse_42" data-name="Ellipse 42" class="cln-6" transform="translate(12237 8016)"><circle class="cln-7" cx="11.5" cy="11.5" r="11.5"/><circle class="cln-8" cx="11.5" cy="11.5" r="11"/></g><g id="Ellipse_31" data-name="Ellipse 31" class="cln-6" transform="translate(12501 8058)"><circle class="cln-7" cx="11.5" cy="11.5" r="11.5"/><circle class="cln-8" cx="11.5" cy="11.5" r="11"/></g><g id="Ellipse_37" data-name="Ellipse 37" class="cln-6" transform="translate(12413 8058)"><circle class="cln-7" cx="11.5" cy="11.5" r="11.5"/><circle class="cln-8" cx="11.5" cy="11.5" r="11"/></g><g id="Ellipse_33" data-name="Ellipse 33" class="cln-6" transform="translate(12458 8058)"><circle class="cln-7" cx="11.5" cy="11.5" r="11.5"/><circle class="cln-8" cx="11.5" cy="11.5" r="11"/></g><g id="Ellipse_36" data-name="Ellipse 36" class="cln-6" transform="translate(12370 8058)"><circle class="cln-7" cx="11.5" cy="11.5" r="11.5"/><circle class="cln-8" cx="11.5" cy="11.5" r="11"/></g><g id="Ellipse_39" data-name="Ellipse 39" class="cln-6" transform="translate(12327 8058)"><circle class="cln-7" cx="11.5" cy="11.5" r="11.5"/><circle class="cln-8" cx="11.5" cy="11.5" r="11"/></g><g id="Ellipse_41" data-name="Ellipse 41" class="cln-6" transform="translate(12282 8058)"><circle class="cln-7" cx="11.5" cy="11.5" r="11.5"/><circle class="cln-8" cx="11.5" cy="11.5" r="11"/></g><g id="Ellipse_43" data-name="Ellipse 43" class="cln-6" transform="translate(12237 8058)"><circle class="cln-7" cx="11.5" cy="11.5" r="11.5"/><circle class="cln-8" cx="11.5" cy="11.5" r="11"/></g></g></svg>