<svg xmlns="http://www.w3.org/2000/svg" viewBox="11171 7144 454 332"><defs><style>.clc-1{fill:rgba(0,0,0,0);stroke:#dcdbde;stroke-width:6px}.clc-2{fill:#8d8a94}.clc-3{fill:#de4444}.clc-4{filter:url(#Path_36)}.clc-5{filter:url(#Path_35)}.clc-6{filter:url(#Path_34)}.clc-7{filter:url(#Ellipse_16)}.clc-8{filter:url(#Ellipse_20)}.clc-9{filter:url(#Ellipse_21)}.clc-10{filter:url(#Ellipse_19)}.clc-11{filter:url(#Ellipse_18)}.clc-12{filter:url(#Ellipse_15)}</style><filter id="Ellipse_15" x="11490" y="7163" width="56" height="56" filterUnits="userSpaceOnUse"><feOffset dy="3"/><feGaussianBlur stdDeviation="3" result="blur"/><feFlood flood-opacity=".161"/><feComposite operator="in" in2="blur"/><feComposite in="SourceGraphic"/></filter><filter id="Ellipse_18" x="11205" y="7144" width="56" height="56" filterUnits="userSpaceOnUse"><feOffset dy="3"/><feGaussianBlur stdDeviation="3" result="blur-2"/><feFlood flood-opacity=".161"/><feComposite operator="in" in2="blur-2"/><feComposite in="SourceGraphic"/></filter><filter id="Ellipse_19" x="11370" y="7420" width="56" height="56" filterUnits="userSpaceOnUse"><feOffset dy="3"/><feGaussianBlur stdDeviation="3" result="blur-3"/><feFlood flood-opacity=".161"/><feComposite operator="in" in2="blur-3"/><feComposite in="SourceGraphic"/></filter><filter id="Ellipse_21" x="11539" y="7377" width="56" height="56" filterUnits="userSpaceOnUse"><feOffset dy="3"/><feGaussianBlur stdDeviation="3" result="blur-4"/><feFlood flood-opacity=".161"/><feComposite operator="in" in2="blur-4"/><feComposite in="SourceGraphic"/></filter><filter id="Ellipse_20" x="11569" y="7263" width="56" height="56" filterUnits="userSpaceOnUse"><feOffset dy="3"/><feGaussianBlur stdDeviation="3" result="blur-5"/><feFlood flood-opacity=".161"/><feComposite operator="in" in2="blur-5"/><feComposite in="SourceGraphic"/></filter><filter id="Ellipse_16" x="11171" y="7350" width="56" height="56" filterUnits="userSpaceOnUse"><feOffset dy="3"/><feGaussianBlur stdDeviation="3" result="blur-6"/><feFlood flood-opacity=".161"/><feComposite operator="in" in2="blur-6"/><feComposite in="SourceGraphic"/></filter><filter id="Path_34" x="11292.5" y="7261.113" width="141.399" height="98.688" filterUnits="userSpaceOnUse"><feOffset dy="3"/><feGaussianBlur stdDeviation="5" result="blur-7"/><feFlood flood-opacity=".161"/><feComposite operator="in" in2="blur-7"/><feComposite in="SourceGraphic"/></filter><filter id="Path_35" x="11337.459" y="7228.643" width="132.407" height="131.158" filterUnits="userSpaceOnUse"><feOffset dy="3"/><feGaussianBlur stdDeviation="5" result="blur-8"/><feFlood flood-opacity=".161"/><feComposite operator="in" in2="blur-8"/><feComposite in="SourceGraphic"/></filter><filter id="Path_36" x="11370.691" y="7246.127" width="157.248" height="113.701" filterUnits="userSpaceOnUse"><feOffset dy="3"/><feGaussianBlur stdDeviation="5" result="blur-9"/><feFlood flood-opacity=".161"/><feComposite operator="in" in2="blur-9"/><feComposite in="SourceGraphic"/></filter></defs><g id="Group_88" data-name="Group 88" transform="translate(10133 43)"><path id="Path_91" data-name="Path 91" class="clc-1" d="M-44.6-37.8S24.3-26.45 57.7-1.5 89 62 89 62" transform="translate(1143.5 7164.5)"/><path id="Path_86" data-name="Path 86" class="clc-1" d="M61 0S24.05 5.45 8.8 25.7 0 81 0 81" transform="translate(1324.5 7145.5)"/><path id="Path_87" data-name="Path 87" class="clc-1" d="M109 0S94.75 21.7 67.5 21.7 0 0 0 0" transform="translate(1355.5 7245.5)"/><path id="Path_88" data-name="Path 88" class="clc-1" d="M79 76S27.75 63.3 8 44.3 0 0 0 0" transform="translate(1355.5 7283.5)"/><path id="Path_89" data-name="Path 89" class="clc-1" d="M-17.1 113.3s-28-19-24.8-57.6S0 0 0 0" transform="translate(1281.5 7283.5)"/><path id="Path_90" data-name="Path 90" class="clc-1" d="M0 61s38.05 25.25 78.3 10S161 0 161 0" transform="translate(1069.5 7271.5)"/><g id="Group_87" data-name="Group 87"><g class="clc-12" transform="translate(-10133 -43)"><circle id="Ellipse_15-2" data-name="Ellipse 15" class="clc-2" cx="19" cy="19" r="19" transform="translate(11499 7169)"/></g><g class="clc-11" transform="translate(-10133 -43)"><circle id="Ellipse_18-2" data-name="Ellipse 18" class="clc-2" cx="19" cy="19" r="19" transform="translate(11214 7150)"/></g><g class="clc-10" transform="translate(-10133 -43)"><circle id="Ellipse_19-2" data-name="Ellipse 19" class="clc-2" cx="19" cy="19" r="19" transform="translate(11379 7426)"/></g><g class="clc-9" transform="translate(-10133 -43)"><circle id="Ellipse_21-2" data-name="Ellipse 21" class="clc-2" cx="19" cy="19" r="19" transform="translate(11548 7383)"/></g><g class="clc-8" transform="translate(-10133 -43)"><circle id="Ellipse_20-2" data-name="Ellipse 20" class="clc-2" cx="19" cy="19" r="19" transform="translate(11578 7269)"/></g><g class="clc-7" transform="translate(-10133 -43)"><circle id="Ellipse_16-2" data-name="Ellipse 16" class="clc-2" cx="19" cy="19" r="19" transform="translate(11180 7356)"/></g></g><g id="Symbol_1_1" data-name="Symbol 1 – 1"><g class="clc-6" transform="translate(-10133 -43)"><path id="Path_34-2" data-name="Path 34" class="clc-3" d="M45.147.5C69.8.5 89.794 15.876 89.794 34.844c0 14.927 22.1 34.344 22.1 34.344H45.147C20.489 69.188.5 53.811.5 34.844S20.489.5 45.147.5z" transform="translate(11307 7272.61)"/></g><g class="clc-5" transform="translate(-10133 -43)"><path id="Path_35-2" data-name="Path 35" class="clc-3" d="M51.7.5c28.279 0 51.2 23.729 51.2 53s-22.925 48.158-51.2 48.158S.5 82.771.5 53.5 23.425.5 51.7.5z" transform="translate(11351.96 7240.14)"/></g><g class="clc-4" transform="translate(-10133 -43)"><path id="Path_36-2" data-name="Path 36" class="clc-3" d="M53.222.5C83.4.5 107.86 22.726 107.86 50.143c-.939 9.43-11.439 29.93-33.839 32.33s-74.9 1.6-74.9 1.6-26.3-13.6-16.2-37.6C-8.979 27.773 23.046.5 53.222.5z" transform="translate(11405.08 7257.63)"/></g></g></g></svg>