<svg xmlns="http://www.w3.org/2000/svg" viewBox="3116.5 4901.5 326.776 182.4"><defs><style>.cls-1{fill:#52be7f}.cls-2,.cls-5{fill:none}.cls-2,.cls-3{stroke:#54698d}.cls-3{fill:rgba(0,0,0,0)}.cls-4{stroke:none}</style></defs><g id="Group_216" data-name="Group 216" transform="translate(9870 -1938)"><path id="Union_3" data-name="Union 3" class="cls-1" d="M40.381 90.309v-.026q-.292.026-.594.026H8.417c-4.594 0-9.15-4.04-8.318-8.318L15.071 8.318C16.5 2.138 18.8 0 23.389 0H55c4.594 0 9.149 3.8 8.318 8.318L48.35 80.8h34.374a4 4 0 0 1 4 4v1.507a4 4 0 0 1-4 4z" transform="translate(-6721.99 6931.591)"/><path id="Rectangle_159" data-name="Rectangle 159" class="cls-1" d="M0 0h5.131a3 3 0 0 1 3 3v132.046a3 3 0 0 1-3 3H0V0z" transform="translate(-6568.425 6848.816)"/><path id="Path_105" data-name="Path 105" class="cls-1" d="M1.225 1.346A2.52 2.52 0 0 1 3.483.514L57.431.4A4.577 4.577 0 0 1 60.4 1.465c.951 1.069.857 3.565.857 3.565v4.141s.368 5.153-6.257 13.252a27.976 27.976 0 0 1-16.382 9.387H27.207c-5.01 0-11.227 0-20.613-8.283C-.4 16.165.518 9.171.518 9.171V3.6a3.423 3.423 0 0 1 .707-2.254z" transform="translate(-6537.152 6866.435)"/><path id="Path_106" data-name="Path 106" class="cls-1" d="M4.375 7.126A15.618 15.618 0 0 1 15.972.5h3.862a3.358 3.358 0 0 1 2.153.715A3.576 3.576 0 0 1 22.6 3.45v34.364a6.887 6.887 0 0 1-.85 3.686 4.393 4.393 0 0 1-2.971 1.337h-2.807A15.35 15.35 0 0 1 5.3 39.153C.51 34.92.51 27.373.51 27.373v-6.741A23.047 23.047 0 0 1 4.375 7.126z" transform="translate(-6483.766 6877.499)"/><g id="Group_100" data-name="Group 100" transform="translate(-6489.814 6890.079)"><g id="Rectangle_160" data-name="Rectangle 160" class="cls-2" transform="translate(25.769)"><rect class="cls-4" width="14.725" height="18.406" rx="4"/><rect class="cls-5" x=".5" y=".5" width="13.725" height="17.406" rx="3.5"/></g><path id="Path_107" data-name="Path 107" class="cls-3" d="M22.544 0v17.854s.554 11.964-7.362 17.3-17.607 6.1-17.607 6.1" transform="translate(9.667 17.486)"/><g id="Rectangle_161" data-name="Rectangle 161" class="cls-2" transform="translate(0 53.378)"><rect class="cls-4" width="11.044" height="11.044" rx="4"/><rect class="cls-5" x=".5" y=".5" width="10.044" height="10.044" rx="3.5"/></g></g><path id="Path_109" data-name="Path 109" class="cls-1" d="M.416.811a1.875 1.875 0 0 1 1.5-.478h16.708a1.832 1.832 0 0 1 1.162.238C20.13.9 20 1.623 20 1.623l-.694 6.555a1.757 1.757 0 0 1-.594 1.307 3.612 3.612 0 0 1-1.782.381H2.3a1.383 1.383 0 0 1-1.172-.381 3.485 3.485 0 0 1-.474-1.608l-.541-5.2A3.035 3.035 0 0 1 .416.811z" transform="translate(-6467.66 7006.83)"/><path id="Path_111" data-name="Path 111" class="cls-1" d="M.632.5h26.5A2.361 2.361 0 0 1 29.2 3.186a2.938 2.938 0 0 1-2.431 2.835H1s-2.458-.7-2.458-2.954A2.515 2.515 0 0 1 .632.5z" transform="translate(-6471.37 6983.066)"/><path id="Line_106" data-name="Line 106" class="cls-2" transform="translate(-6753.5 6844.253)" d="M0 0h199.63"/><path id="Line_107" data-name="Line 107" class="cls-2" transform="translate(-6558.623 6839.5)" d="M0 0v147.346"/><path id="Line_108" data-name="Line 108" class="cls-2" transform="translate(-6753.5 6982.093)" d="M0 0h41.59"/><path id="Line_117" data-name="Line 117" class="cls-2" transform="translate(-6663.191 6982.093)" d="M0 0h109.321"/><path id="Line_109" data-name="Line 109" class="cls-2" transform="translate(-6565.752 6839.5)" d="M0 0v147.346"/><path id="Line_110" data-name="Line 110" class="cls-2" transform="translate(-6748.747 6839.5)" d="M0 147.346V0"/><path id="Line_111" data-name="Line 111" class="cls-2" transform="translate(-6719.04 6921.491)" d="M20.201 0L0 98.627"/><path id="Line_113" data-name="Line 113" class="cls-2" transform="translate(-6671.509 6921.491)" d="M20.201 0L0 98.627"/><path id="Line_115" data-name="Line 115" class="cls-2" transform="translate(-6631.107 7003.482)" d="M3.565 0L0 16.636"/><path id="Line_112" data-name="Line 112" class="cls-2" transform="translate(-6703.592 6926.244)" d="M0 0h54.661"/><path id="Line_114" data-name="Line 114" class="cls-2" transform="translate(-6722.605 7016.553)" d="M0 0h96.25"/><path id="Line_116" data-name="Line 116" class="cls-2" transform="translate(-6671.509 7007.047)" d="M0 0h46.343"/><path id="Line_118" data-name="Line 118" class="cls-2" transform="translate(-6537.233 6863.266)" d="M0 0h68.92"/><path id="Line_119" data-name="Line 119" class="cls-2" transform="translate(-6533.669 6859.701)" d="M0 0v22.577"/><path id="Line_120" data-name="Line 120" class="cls-2" transform="translate(-6471.878 6859.701)" d="M0 0v22.577"/><path id="Path_234" data-name="Path 234" class="cls-2" d="M-1.3-1.5A35.576 35.576 0 0 0 8.919 14.3c7.724 6.654 15.448 6.654 15.448 6.654" transform="translate(-6533.914 6873.678)"/><path id="Path_235" data-name="Path 235" class="cls-2" d="M23.06-1.5a35.985 35.985 0 0 1-9.7 15.8C6.031 20.958-1.3 20.958-1.3 20.958" transform="translate(-6493.869 6873.678)"/><path id="Line_121" data-name="Line 121" class="cls-2" transform="translate(-6517.033 6894.161)" d="M0 0h29.707"/><path id="Line_122" data-name="Line 122" class="cls-2" transform="translate(-6457.619 6871.583)" d="M0 0v22.577"/><path id="Path_240" data-name="Path 240" class="cls-3" d="M0-1.6v14.972" transform="translate(-6457.619 6905.742)"/><path id="Line_124" data-name="Line 124" class="cls-2" transform="translate(-6469.502 6873.96)" d="M14.259 0H0"/><path id="Line_125" data-name="Line 125" class="cls-2" transform="translate(-6471.878 6916.738)" d="M16.636 0H0"/><path id="Path_236" data-name="Path 236" class="cls-3" d="M15.923 15.567s-7.07.178-10.932-3.684S0 0 0 0" transform="translate(-6480.196 6901.291)"/><path id="Line_126" data-name="Line 126" class="cls-2" transform="translate(-6480.196 6884.654)" d="M0 0v23.766"/><path id="Path_237" data-name="Path 237" class="cls-3" d="M8.412 0A14.634 14.634 0 0 0 3.9 1.545 29.6 29.6 0 0 0-.5 4.872" transform="translate(-6473.161 6873.96)"/><path id="Line_127" data-name="Line 127" class="cls-2" transform="translate(-6521.786 6894.161)" d="M0 0v33.272"/><path id="Path_238" data-name="Path 238" class="cls-3" d="M-1.5-.9S1.59 9.973 6.343 15.617s17.23 8.437 17.23 8.437" transform="translate(-6522.068 6916.568)"/><path id="Path_239" data-name="Path 239" class="cls-3" d="M24.4 1.8a35.955 35.955 0 0 1-7.192 13.309C12.05 20.753-1.5 23.546-1.5 23.546" transform="translate(-6487.014 6917.077)"/><path id="Line_128" data-name="Line 128" class="cls-2" transform="translate(-6507.527 6939.315)" d="M0 0h29.707"/><path id="Line_129" data-name="Line 129" class="cls-2" transform="translate(-6531.292 6947.633)" d="M0 60.602V0"/><path id="Line_130" data-name="Line 130" class="cls-2" transform="translate(-6431.477 6947.633)" d="M0 71.297V0"/><path id="Path_241" data-name="Path 241" class="cls-3" d="M.6 26.692s4.1-9.566 9.744-16.4S21.157 1.5 21.157 1.5" transform="translate(-6533.556 6930.091)"/><path id="Line_131" data-name="Line 131" class="cls-2" transform="translate(-6595.459 7014.177)" d="M0 0h168.735"/><path id="Path_242" data-name="Path 242" class="cls-3" d="M29.3 32.359s-2.144-14.616-9.867-22.934S-1.6-.2-1.6-.2" transform="translate(-6459.108 6929.771)"/><path id="Line_132" data-name="Line 132" class="cls-2" transform="translate(-6470.69 6928.621)" d="M13.071 1.188L0 0"/><path id="Line_133" data-name="Line 133" class="cls-2" transform="translate(-6595.459 7003.482)" d="M0 0h45.155"/><path id="Line_134" data-name="Line 134" class="cls-2" transform="translate(-6565.752 7002.294)" d="M45.155 7.13L0 0"/><path id="Path_243" data-name="Path 243" class="cls-3" d="M.6 0s-3.8 3.506-3.8 7.368 3.8 8.08 3.8 8.08" transform="translate(-6591.309 7001.105)"/><path id="Path_244" data-name="Path 244" class="cls-3" d="M0 1a7.008 7.008 0 0 1 1.188 4.159A9.768 9.768 0 0 1 0 9.793" transform="translate(-6522.974 7006.047)"/><path id="Line_135" data-name="Line 135" class="cls-2" transform="translate(-6568.129 7001.105)" d="M0 0v15.448"/><path id="Line_136" data-name="Line 136" class="cls-2" transform="translate(-6558.623 7001.105)" d="M0 0v15.448"/><path id="Line_137" data-name="Line 137" class="cls-2" transform="translate(-6469.502 6969.022)" d="M0 0h30.895"/><path id="Line_138" data-name="Line 138" class="cls-2" transform="translate(-6473.067 6973.775)" d="M0 0h39.213"/><path id="Line_139" data-name="Line 139" class="cls-2" transform="translate(-6473.067 6980.905)" d="M0 0h39.213"/><path id="Line_140" data-name="Line 140" class="cls-2" transform="translate(-6470.69 6986.846)" d="M0 0h33.272"/><path id="Line_141" data-name="Line 141" class="cls-2" transform="translate(-6469.502 7004.67)" d="M0 0h30.895"/><path id="Line_142" data-name="Line 142" class="cls-2" transform="translate(-6467.125 6966.646)" d="M0 0v9.506"/><path id="Line_143" data-name="Line 143" class="cls-2" transform="translate(-6440.983 6966.646)" d="M0 0v9.506"/><path id="Line_144" data-name="Line 144" class="cls-2" transform="translate(-6470.69 6971.399)" d="M0 0v11.883"/><path id="Line_145" data-name="Line 145" class="cls-2" transform="translate(-6436.23 6971.399)" d="M0 0v11.883"/><path id="Line_146" data-name="Line 146" class="cls-2" transform="translate(-6468.313 6984.47)" d="M0 0l2.377 22.577"/><path id="Line_149" data-name="Line 149" class="cls-2" transform="translate(-6442.171 6984.47)" d="M3.327 0L0 22.577"/><path id="Line_147" data-name="Line 147" class="cls-2" transform="translate(-6468.313 6979.717)" d="M1.188 8.318L0 0"/><path id="Line_148" data-name="Line 148" class="cls-2" transform="translate(-6440.508 6979.717)" d="M0 8.318L1.663 0"/><path id="Line_150" data-name="Line 150" class="cls-2" transform="translate(-6464.749 7002.294)" d="M0 0l1.188 14.259"/><path id="Line_151" data-name="Line 151" class="cls-2" transform="translate(-6445.736 7002.294)" d="M2.377 0L0 14.259"/></g></svg>