<svg xmlns="http://www.w3.org/2000/svg" viewBox="10503 7175 413 240"><defs><style>.cll-1{fill:rgba(0,0,0,0);stroke:#dcdbde;stroke-width:6px}.cll-2{fill:#8d8a94}.cll-3{filter:url(#Ellipse_15)}.cll-4{filter:url(#Ellipse_14)}.cll-5{filter:url(#Ellipse_12)}.cll-6{filter:url(#Ellipse_17)}.cll-7{filter:url(#Ellipse_13)}.cll-8{filter:url(#Ellipse_16)}</style><filter id="Ellipse_16" x="10860" y="7349" width="56" height="56" filterUnits="userSpaceOnUse"><feOffset dy="3"/><feGaussianBlur stdDeviation="3" result="blur"/><feFlood flood-opacity=".161"/><feComposite operator="in" in2="blur"/><feComposite in="SourceGraphic"/></filter><filter id="Ellipse_13" x="10578" y="7213" width="56" height="56" filterUnits="userSpaceOnUse"><feOffset dy="3"/><feGaussianBlur stdDeviation="3" result="blur-2"/><feFlood flood-opacity=".161"/><feComposite operator="in" in2="blur-2"/><feComposite in="SourceGraphic"/></filter><filter id="Ellipse_17" x="10719" y="7201" width="56" height="56" filterUnits="userSpaceOnUse"><feOffset dy="3"/><feGaussianBlur stdDeviation="3" result="blur-3"/><feFlood flood-opacity=".161"/><feComposite operator="in" in2="blur-3"/><feComposite in="SourceGraphic"/></filter><filter id="Ellipse_12" x="10503" y="7311" width="56" height="56" filterUnits="userSpaceOnUse"><feOffset dy="3"/><feGaussianBlur stdDeviation="3" result="blur-4"/><feFlood flood-opacity=".161"/><feComposite operator="in" in2="blur-4"/><feComposite in="SourceGraphic"/></filter><filter id="Ellipse_14" x="10693" y="7359" width="56" height="56" filterUnits="userSpaceOnUse"><feOffset dy="3"/><feGaussianBlur stdDeviation="3" result="blur-5"/><feFlood flood-opacity=".161"/><feComposite operator="in" in2="blur-5"/><feComposite in="SourceGraphic"/></filter><filter id="Ellipse_15" x="10860" y="7175" width="56" height="56" filterUnits="userSpaceOnUse"><feOffset dy="3"/><feGaussianBlur stdDeviation="3" result="blur-6"/><feFlood flood-opacity=".161"/><feComposite operator="in" in2="blur-6"/><feComposite in="SourceGraphic"/></filter></defs><g id="Group_89" data-name="Group 89" transform="translate(10215 43)"><path id="Path_82" data-name="Path 82" class="cll-1" d="M0 98s41.95-9.6 60.7-34.1S75 0 75 0" transform="translate(316.5 7195.5)"/><path id="Path_81" data-name="Path 81" class="cll-1" d="M0 0s72.25.8 101 37.3S115 146 115 146" transform="translate(391.5 7195.5)"/><path id="Path_80" data-name="Path 80" class="cll-1" d="M0 158s37.3-28 43.8-67.5S26 0 26 0" transform="translate(506.5 7183.5)"/><path id="Path_78" data-name="Path 78" class="cll-1" d="M0 26S33.75 3.4 69-3.1 141 0 141 0" transform="translate(532.5 7157.5)"/><path id="Path_79" data-name="Path 79" class="cll-1" d="M0 0s59.05 18.3 94.3 55.3S141 148 141 148" transform="translate(532.5 7183.5)"/><g class="cll-8" transform="translate(-10215 -43)"><circle id="Ellipse_16-2" data-name="Ellipse 16" class="cll-2" cx="19" cy="19" r="19" transform="translate(10869 7355)"/></g><path id="Path_83" data-name="Path 83" class="cll-1" d="M0 12s21.95-45.4 57.2-48.4S141 0 141 0" transform="translate(391.5 7183.5)"/><g class="cll-7" transform="translate(-10215 -43)"><circle id="Ellipse_13-2" data-name="Ellipse 13" class="cll-2" cx="19" cy="19" r="19" transform="translate(10587 7219)"/></g><g class="cll-6" transform="translate(-10215 -43)"><circle id="Ellipse_17-2" data-name="Ellipse 17" class="cll-2" cx="19" cy="19" r="19" transform="translate(10728 7207)"/></g><path id="Path_85" data-name="Path 85" class="cll-1" d="M0 0s43.3-72.6 90.8-60.6S190 48 190 48" transform="translate(316.5 7293.5)"/><path id="Path_84" data-name="Path 84" class="cll-1" d="M0 184s113.65-23.3 155.4-69.3S167 0 167 0" transform="translate(506.5 7157.5)"/><g class="cll-5" transform="translate(-10215 -43)"><circle id="Ellipse_12-2" data-name="Ellipse 12" class="cll-2" cx="19" cy="19" r="19" transform="translate(10512 7317)"/></g><g class="cll-4" transform="translate(-10215 -43)"><circle id="Ellipse_14-2" data-name="Ellipse 14" class="cll-2" cx="19" cy="19" r="19" transform="translate(10702 7365)"/></g><g class="cll-3" transform="translate(-10215 -43)"><circle id="Ellipse_15-2" data-name="Ellipse 15" class="cll-2" cx="19" cy="19" r="19" transform="translate(10869 7181)"/></g></g></svg>