<svg xmlns="http://www.w3.org/2000/svg" viewBox="10782.2 6431.2 564.488 201.179"><defs><style>.cls-1{fill:#8d8a94}.cls-2{fill:#625d6b}.cls-3{fill:#dcdbde}.cls-4{fill:#55b13d}.cls-5{fill:#ededee}.cls-6{fill:#504b5a}.cls-7{fill:#a7a5ac}</style></defs><g id="trucking" transform="translate(11018 6331.889)"><path id="Path_49" data-name="Path 49" class="cls-1" d="M359.7 153.148h-11.337v-34.975a5.666 5.666 0 0 0-1.66-4.008l-6.01-6.01a2.833 2.833 0 0 1 0-4.007l4.007-4.007a2.833 2.833 0 0 1 4.007 0l6.01 6.01a17 17 0 0 1 4.98 12.025v34.972z" transform="translate(-121.681)"/><path id="Path_50" data-name="Path 50" class="cls-2" d="M508.145 306.759H392.917v17H19.8c-6.06 0-10.975 2.538-10.975 5.667v11.334c0 3.13 4.914 5.667 10.975 5.667h488.345z" transform="translate(-244.627 -74.273)"/><path id="Path_51" data-name="Path 51" class="cls-3" d="M445.1 139.035H11.714C5.245 139.035 0 141.573 0 144.7v113.343c0 3.13 5.245 5.667 11.714 5.667H445.1c6.469 0 11.714-2.538 11.714-5.667V144.7c0-3.129-5.245-5.665-11.714-5.665z" transform="translate(-235.8 -14.222)"/><path id="Path_67" data-name="Path 67" class="cls-4" d="M445.475 139.035H11.724C5.25 139.035 0 140.077 0 141.361v46.525c0 1.285 5.25 2.326 11.724 2.326h433.752c6.474 0 11.724-1.042 11.724-2.326v-46.525c0-1.285-5.251-2.326-11.725-2.326z" transform="translate(-235.8 59.276)"/><path id="Path_57" data-name="Path 57" class="cls-1" d="M422.805 165.518h-37.552a5.668 5.668 0 0 0-5.667 5.667v85.006a5.668 5.668 0 0 0 5.667 5.667h14.168v28.335h59.5v-40.481a56.673 56.673 0 0 0-3.777-20.343l-21.763-56.585a11.334 11.334 0 0 0-10.576-7.266z" transform="translate(-135.903 -23.704)"/><path id="Path_66" data-name="Path 66" class="cls-3" d="M0 0h59.5v28.335H0z" transform="translate(263.518 238.153)"/><g id="Group_85" data-name="Group 85" transform="translate(-229)"><circle id="Ellipse_22" data-name="Ellipse 22" class="cls-5" cx="25.974" cy="25.974" r="25.974" transform="translate(22.195 243.348)"/><path id="Path_58" data-name="Path 58" class="cls-6" d="M57.651 377.923a31.169 31.169 0 1 1 31.169-31.169 31.2 31.2 0 0 1-31.169 31.169zm0-51a19.835 19.835 0 1 0 19.835 19.835 19.855 19.855 0 0 0-19.835-19.838z" transform="translate(-9.481 -77.433)"/><circle id="Ellipse_23" data-name="Ellipse 23" class="cls-3" cx="11.334" cy="11.334" r="11.334" transform="translate(36.836 257.988)"/><circle id="Ellipse_24" data-name="Ellipse 24" class="cls-5" cx="25.974" cy="25.974" r="25.974" transform="translate(84.533 243.348)"/><path id="Path_59" data-name="Path 59" class="cls-6" d="M154.755 377.923a31.169 31.169 0 1 1 31.169-31.169 31.2 31.2 0 0 1-31.169 31.169zm0-51a19.835 19.835 0 1 0 19.835 19.835 19.855 19.855 0 0 0-19.835-19.838z" transform="translate(-44.248 -77.433)"/><circle id="Ellipse_25" data-name="Ellipse 25" class="cls-3" cx="11.334" cy="11.334" r="11.334" transform="translate(99.173 257.988)"/></g><g id="Group_86" data-name="Group 86" transform="translate(-167)"><circle id="Ellipse_24-2" data-name="Ellipse 24" class="cls-5" cx="25.974" cy="25.974" r="25.974" transform="translate(84.533 243.348)"/><path id="Path_59-2" data-name="Path 59" class="cls-6" d="M154.755 377.923a31.169 31.169 0 1 1 31.169-31.169 31.2 31.2 0 0 1-31.169 31.169zm0-51a19.835 19.835 0 1 0 19.835 19.835 19.855 19.855 0 0 0-19.835-19.838z" transform="translate(-44.248 -77.433)"/><circle id="Ellipse_25-2" data-name="Ellipse 25" class="cls-3" cx="11.334" cy="11.334" r="11.334" transform="translate(99.173 257.988)"/></g><circle id="Ellipse_26" data-name="Ellipse 26" class="cls-5" cx="25.974" cy="25.974" r="25.974" transform="translate(237.544 243.348)"/><path id="Path_60" data-name="Path 60" class="cls-6" d="M393.1 377.923a31.169 31.169 0 1 1 31.169-31.169 31.2 31.2 0 0 1-31.169 31.169zm0-51a19.835 19.835 0 1 0 19.835 19.835A19.855 19.855 0 0 0 393.1 326.92z" transform="translate(-129.582 -77.433)"/><circle id="Ellipse_27" data-name="Ellipse 27" class="cls-3" cx="11.334" cy="11.334" r="11.334" transform="translate(252.184 257.988)"/><path id="Path_61" data-name="Path 61" class="cls-2" d="M491.184 355.909h5.667a5.668 5.668 0 0 0 5.667-5.667v-11.335a5.668 5.668 0 0 0-5.667-5.667h-5.667a5.668 5.668 0 0 0-5.667 5.667v11.334a5.667 5.667 0 0 0 5.667 5.668z" transform="translate(-173.83 -83.754)"/><path id="Path_62" data-name="Path 62" class="cls-7" d="M491.184 297.931h5.667v17h-5.667a5.668 5.668 0 0 1-5.667-5.667V303.6a5.667 5.667 0 0 1 5.667-5.669z" transform="translate(-173.83 -71.112)"/><path id="Path_63" data-name="Path 63" class="cls-2" d="M427.414 183.173h-24.506a5.668 5.668 0 0 0-5.667 5.667v28.335a5.668 5.668 0 0 0 5.667 5.667h41.586a4.1 4.1 0 0 0 3.822-5.565l-10.322-26.84a11.336 11.336 0 0 0-10.58-7.264z" transform="translate(-142.224 -30.025)"/><path id="Path_64" data-name="Path 64" class="cls-7" d="M349.942 174.345h11.334a5.668 5.668 0 0 1 5.667 5.667v79.338a5.668 5.668 0 0 1-5.667 5.667h-11.334a5.668 5.668 0 0 1-5.667-5.667v-79.338a5.668 5.668 0 0 1 5.667-5.667z" transform="translate(-123.261 -26.864)"/><path id="Path_65" data-name="Path 65" class="cls-1" d="M244.011 333.241h39.669a5.668 5.668 0 0 1 5.667 5.667v17a5.668 5.668 0 0 1-5.667 5.667h-39.669a5.668 5.668 0 0 1-5.667-5.667v-17a5.668 5.668 0 0 1 5.667-5.667z" transform="translate(-85.334 -83.754)"/><circle id="Ellipse_28" data-name="Ellipse 28" class="cls-2" cx="5.667" cy="5.667" r="5.667" transform="translate(158.677 255.154)"/></g></svg>