<svg xmlns="http://www.w3.org/2000/svg" viewBox="11495.575 9285.381 23.947 32.523"><defs><style>.cls-1{fill:#55b13d}</style></defs><g id="_001-placeholder-filled-point" data-name="001-placeholder-filled-point" transform="translate(11495.575 9285.381)"><path id="Path_94" data-name="Path 94" class="cls-1" d="M24.856 0a11.987 11.987 0 0 0-11.973 11.974 11.68 11.68 0 0 0 1.047 4.888c2.994 6.551 8.733 13.467 10.421 15.43a.667.667 0 0 0 1.01 0c1.688-1.963 7.427-8.879 10.422-15.43a11.675 11.675 0 0 0 1.047-4.888A11.988 11.988 0 0 0 24.856 0zm0 18.193a6.22 6.22 0 1 1 6.22-6.22 6.227 6.227 0 0 1-6.22 6.22z" transform="translate(-12.883)"/></g></svg>