<svg xmlns="http://www.w3.org/2000/svg" viewBox="10742.5 9285.381 18.949 32.619"><defs><style>.cls-1{fill:#55b13d}</style></defs><g id="_003-smartphone-call" data-name="003-smartphone-call" transform="translate(10742.5 9285.381)"><path id="Path_99" data-name="Path 99" class="cls-1" d="M24.08 0H9.537a2.209 2.209 0 0 0-2.2 2.2v28.215a2.21 2.21 0 0 0 2.2 2.2H24.08a2.209 2.209 0 0 0 2.2-2.2V2.2a2.209 2.209 0 0 0-2.2-2.2zm-9.6 1.588h4.652a.267.267 0 0 1 0 .534h-4.65a.267.267 0 0 1 0-.534zm2.326 29.929a1.1 1.1 0 1 1 1.1-1.1 1.1 1.1 0 0 1-1.098 1.1zm7.941-2.976H8.867V3.494H24.75z" transform="translate(-7.334)"/></g></svg>